<?xml version="1.0" encoding="UTF-8" standalone="no"?>
<!DOCTYPE svg PUBLIC "-//W3C//DTD SVG 1.1//EN"
 "http://www.w3.org/Graphics/SVG/1.1/DTD/svg11.dtd">
<!-- Generated by graphviz version 14.1.2 (0)
 -->
<!-- Title: RoofMotion Pages: 1 -->
<svg width="1651pt" height="518pt"
 viewBox="0.00 0.00 1651.00 518.00" xmlns="http://www.w3.org/2000/svg" xmlns:xlink="http://www.w3.org/1999/xlink">
<g id="graph0" class="graph" transform="scale(1 1) rotate(0) translate(4 513.85)">
<title>RoofMotion</title>
<polygon fill="white" stroke="none" points="-4,4 -4,-513.85 1646.88,-513.85 1646.88,4 -4,4"/>
<text xml:space="preserve" text-anchor="start" x="687.19" y="-489.75" font-family="Helvetica,sans-Serif" font-weight="bold" font-size="18.00">Roof motion state machine</text>
<text xml:space="preserve" text-anchor="start" x="623.81" y="-471.75" font-family="Helvetica,sans-Serif" font-size="18.00"> &#160;&#160;&#160;&#160;&#160;&#160;&#160;&#160;&#160;&#160;</text>
<text xml:space="preserve" text-anchor="start" x="689.81" y="-471.75" font-family="Helvetica,sans-Serif" font-size="11.00">one step per worker poll · west opens first, east closes first</text>
<text xml:space="preserve" text-anchor="start" x="661.69" y="-453.75" font-family="Helvetica,sans-Serif" font-size="18.00"> &#160;&#160;&#160;&#160;&#160;&#160;&#160;&#160;&#160;&#160;</text>
<text xml:space="preserve" text-anchor="start" x="727.69" y="-453.75" font-family="Helvetica,sans-Serif" font-size="10.00" fill="#555555">green = a relay is energized · grey = both relays off</text>
<text xml:space="preserve" text-anchor="start" x="530.44" y="-435.75" font-family="Helvetica,sans-Serif" font-size="18.00"> &#160;&#160;&#160;&#160;&#160;&#160;&#160;&#160;&#160;&#160;</text>
<text xml:space="preserve" text-anchor="start" x="596.44" y="-435.75" font-family="Helvetica,sans-Serif" font-size="10.00" fill="#555555">a half already at its target is skipped from OPEN_KICK or CLOSE_RODCLEAR, before anything is energized</text>
<g id="clust1" class="cluster">
<title>cluster_open</title>
<path fill="#f6fbf3" stroke="#aed581" d="M20,-8C20,-8 380,-8 380,-8 386,-8 392,-14 392,-20 392,-20 392,-335.2 392,-335.2 392,-341.2 386,-347.2 380,-347.2 380,-347.2 20,-347.2 20,-347.2 14,-347.2 8,-341.2 8,-335.2 8,-335.2 8,-20 8,-20 8,-14 14,-8 20,-8"/>
<text xml:space="preserve" text-anchor="middle" x="200" y="-331.8" font-family="Helvetica,sans-Serif" font-size="12.00" fill="#33691e">opening a half &#160;&#160;(west, then east)</text>
</g>
<g id="clust2" class="cluster">
<title>cluster_close</title>
<path fill="#f7f5fc" stroke="#b39ddb" d="M1056,-8C1056,-8 1316,-8 1316,-8 1322,-8 1328,-14 1328,-20 1328,-20 1328,-328.45 1328,-328.45 1328,-334.45 1322,-340.45 1316,-340.45 1316,-340.45 1056,-340.45 1056,-340.45 1050,-340.45 1044,-334.45 1044,-328.45 1044,-328.45 1044,-20 1044,-20 1044,-14 1050,-8 1056,-8"/>
<text xml:space="preserve" text-anchor="middle" x="1186" y="-325.05" font-family="Helvetica,sans-Serif" font-size="12.00" fill="#4527a0">closing a half &#160;&#160;(east, then west)</text>
</g>
<!-- IDLE -->
<g id="node1" class="node">
<title>IDLE</title>
<path fill="#cfd8dc" stroke="#607d8b" d="M767,-425.15C767,-425.15 737,-425.15 737,-425.15 731,-425.15 725,-419.15 725,-413.15 725,-413.15 725,-401.15 725,-401.15 725,-395.15 731,-389.15 737,-389.15 737,-389.15 767,-389.15 767,-389.15 773,-389.15 779,-395.15 779,-401.15 779,-401.15 779,-413.15 779,-413.15 779,-419.15 773,-425.15 767,-425.15"/>
<text xml:space="preserve" text-anchor="middle" x="752" y="-403.45" font-family="Helvetica,sans-Serif" font-size="11.00">IDLE</text>
</g>
<!-- CLOSE_RODCLEAR -->
<g id="node3" class="node">
<title>CLOSE_RODCLEAR</title>
<path fill="#eceff1" stroke="#90a4ae" d="M1167.59,-310.2C1167.59,-310.2 1064.41,-310.2 1064.41,-310.2 1058.41,-310.2 1052.41,-304.2 1052.41,-298.2 1052.41,-298.2 1052.41,-280.8 1052.41,-280.8 1052.41,-274.8 1058.41,-268.8 1064.41,-268.8 1064.41,-268.8 1167.59,-268.8 1167.59,-268.8 1173.59,-268.8 1179.59,-274.8 1179.59,-280.8 1179.59,-280.8 1179.59,-298.2 1179.59,-298.2 1179.59,-304.2 1173.59,-310.2 1167.59,-310.2"/>
<text xml:space="preserve" text-anchor="middle" x="1116" y="-292.55" font-family="Helvetica,sans-Serif" font-size="11.00">CLOSE_RODCLEAR</text>
<text xml:space="preserve" text-anchor="middle" x="1116" y="-279.05" font-family="Helvetica,sans-Serif" font-size="11.00">waiting on the rod</text>
</g>
<!-- IDLE&#45;&gt;CLOSE_RODCLEAR -->
<g id="edge5" class="edge">
<title>IDLE&#45;&gt;CLOSE_RODCLEAR</title>
<path fill="none" stroke="#4527a0" d="M779.36,-397.46C834.5,-379.94 960.66,-339.86 1041.9,-314.04"/>
<polygon fill="#4527a0" stroke="#4527a0" points="1042.65,-317.48 1051.12,-311.11 1040.53,-310.81 1042.65,-317.48"/>
<text xml:space="preserve" text-anchor="start" x="912.21" y="-357.9" font-family="Helvetica,sans-Serif" font-size="9.00"> &#160;command &quot;close&quot;</text>
</g>
<!-- OPEN_KICK -->
<g id="node4" class="node">
<title>OPEN_KICK</title>
<path fill="#c8e6c9" stroke="#4caf50" d="M284.34,-316.95C284.34,-316.95 77.66,-316.95 77.66,-316.95 71.66,-316.95 65.66,-310.95 65.66,-304.95 65.66,-304.95 65.66,-274.05 65.66,-274.05 65.66,-268.05 71.66,-262.05 77.66,-262.05 77.66,-262.05 284.34,-262.05 284.34,-262.05 290.34,-262.05 296.34,-268.05 296.34,-274.05 296.34,-274.05 296.34,-304.95 296.34,-304.95 296.34,-310.95 290.34,-316.95 284.34,-316.95"/>
<text xml:space="preserve" text-anchor="middle" x="181" y="-299.3" font-family="Helvetica,sans-Serif" font-size="11.00">OPEN_KICK</text>
<text xml:space="preserve" text-anchor="middle" x="181" y="-285.8" font-family="Helvetica,sans-Serif" font-size="11.00">driving OPEN</text>
<text xml:space="preserve" text-anchor="middle" x="181" y="-272.3" font-family="Helvetica,sans-Serif" font-size="11.00">rod goes out once the relay is closed</text>
</g>
<!-- IDLE&#45;&gt;OPEN_KICK -->
<g id="edge1" class="edge">
<title>IDLE&#45;&gt;OPEN_KICK</title>
<path fill="none" stroke="#33691e" d="M724.84,-400.65C651.15,-385.72 443.82,-343.73 307.5,-316.12"/>
<polygon fill="#33691e" stroke="#33691e" points="308.56,-312.76 298.06,-314.21 307.17,-319.63 308.56,-312.76"/>
<text xml:space="preserve" text-anchor="start" x="551.01" y="-357.9" font-family="Helvetica,sans-Serif" font-size="9.00"> &#160;command &quot;open&quot;</text>
</g>
<!-- OPEN_SETTLE -->
<g id="node2" class="node">
<title>OPEN_SETTLE</title>
<path fill="#eceff1" stroke="#90a4ae" d="M207.83,-192.3C207.83,-192.3 28.17,-192.3 28.17,-192.3 22.17,-192.3 16.17,-186.3 16.17,-180.3 16.17,-180.3 16.17,-162.9 16.17,-162.9 16.17,-156.9 22.17,-150.9 28.17,-150.9 28.17,-150.9 207.83,-150.9 207.83,-150.9 213.83,-150.9 219.83,-156.9 219.83,-162.9 219.83,-162.9 219.83,-180.3 219.83,-180.3 219.83,-186.3 213.83,-192.3 207.83,-192.3"/>
<text xml:space="preserve" text-anchor="middle" x="118" y="-174.65" font-family="Helvetica,sans-Serif" font-size="11.00">OPEN_SETTLE</text>
<text xml:space="preserve" text-anchor="middle" x="118" y="-161.15" font-family="Helvetica,sans-Serif" font-size="11.00">relays off, rod running its stroke</text>
</g>
<!-- OPEN_RUN -->
<g id="node5" class="node">
<title>OPEN_RUN</title>
<path fill="#c8e6c9" stroke="#4caf50" d="M154.96,-57.4C154.96,-57.4 81.04,-57.4 81.04,-57.4 75.04,-57.4 69.04,-51.4 69.04,-45.4 69.04,-45.4 69.04,-28 69.04,-28 69.04,-22 75.04,-16 81.04,-16 81.04,-16 154.96,-16 154.96,-16 160.96,-16 166.96,-22 166.96,-28 166.96,-28 166.96,-45.4 166.96,-45.4 166.96,-51.4 160.96,-57.4 154.96,-57.4"/>
<text xml:space="preserve" text-anchor="middle" x="118" y="-39.75" font-family="Helvetica,sans-Serif" font-size="11.00">OPEN_RUN</text>
<text xml:space="preserve" text-anchor="middle" x="118" y="-26.25" font-family="Helvetica,sans-Serif" font-size="11.00">driving OPEN</text>
</g>
<!-- OPEN_SETTLE&#45;&gt;OPEN_RUN -->
<g id="edge3" class="edge">
<title>OPEN_SETTLE&#45;&gt;OPEN_RUN</title>
<path fill="none" stroke="#444444" d="M118,-150.42C118,-128.82 118,-94.3 118,-69.14"/>
<polygon fill="#444444" stroke="#444444" points="121.5,-69.15 118,-59.15 114.5,-69.15 121.5,-69.15"/>
<text xml:space="preserve" text-anchor="start" x="118" y="-113.1" font-family="Helvetica,sans-Serif" font-size="9.00"> &#160;rod stroke complete (REQ cleared)</text>
<text xml:space="preserve" text-anchor="start" x="118" y="-101.85" font-family="Helvetica,sans-Serif" font-size="9.00"> &#160;and the closed switches are clear</text>
</g>
<!-- FAULT -->
<g id="node8" class="node">
<title>FAULT</title>
<path fill="#ffcdd2" stroke="#c62828" d="M1024.09,-57.4C1024.09,-57.4 839.91,-57.4 839.91,-57.4 833.91,-57.4 827.91,-51.4 827.91,-45.4 827.91,-45.4 827.91,-28 827.91,-28 827.91,-22 833.91,-16 839.91,-16 839.91,-16 1024.09,-16 1024.09,-16 1030.09,-16 1036.09,-22 1036.09,-28 1036.09,-28 1036.09,-45.4 1036.09,-45.4 1036.09,-51.4 1030.09,-57.4 1024.09,-57.4"/>
<text xml:space="preserve" text-anchor="middle" x="932" y="-39.75" font-family="Helvetica,sans-Serif" font-size="11.00" fill="#b71c1c">FAULT</text>
<text xml:space="preserve" text-anchor="middle" x="932" y="-26.25" font-family="Helvetica,sans-Serif" font-size="11.00" fill="#b71c1c">latched, everything de&#45;energized</text>
</g>
<!-- OPEN_SETTLE&#45;&gt;FAULT -->
<g id="edge11" class="edge">
<title>OPEN_SETTLE&#45;&gt;FAULT</title>
<path fill="none" stroke="#c62828" stroke-dasharray="5,2" d="M220.15,-153.17C224.83,-152.4 229.46,-151.64 234,-150.9 465.3,-113.28 523.93,-108.87 755,-69.9 774.88,-66.55 795.99,-62.84 816.44,-59.17"/>
<polygon fill="#c62828" stroke="#c62828" points="817.01,-62.62 826.23,-57.4 815.77,-55.73 817.01,-62.62"/>
<text xml:space="preserve" text-anchor="start" x="644.97" y="-124.35" font-family="Helvetica,sans-Serif" font-size="9.00" fill="#b71c1c"> &#160;rod stroke did not finish</text>
<text xml:space="preserve" text-anchor="start" x="644.97" y="-113.1" font-family="Helvetica,sans-Serif" font-size="9.00" fill="#b71c1c"> &#160;within roof_rod_timeout,</text>
<text xml:space="preserve" text-anchor="start" x="644.97" y="-101.85" font-family="Helvetica,sans-Serif" font-size="9.00" fill="#b71c1c"> &#160;or the half is still closed</text>
<text xml:space="preserve" text-anchor="start" x="644.97" y="-90.6" font-family="Helvetica,sans-Serif" font-size="9.00" fill="#b71c1c"> &#160;after a full stroke</text>
</g>
<!-- CLOSE_RUN -->
<g id="node6" class="node">
<title>CLOSE_RUN</title>
<path fill="#c8e6c9" stroke="#4caf50" d="M1143.59,-192.3C1143.59,-192.3 1064.41,-192.3 1064.41,-192.3 1058.41,-192.3 1052.41,-186.3 1052.41,-180.3 1052.41,-180.3 1052.41,-162.9 1052.41,-162.9 1052.41,-156.9 1058.41,-150.9 1064.41,-150.9 1064.41,-150.9 1143.59,-150.9 1143.59,-150.9 1149.59,-150.9 1155.59,-156.9 1155.59,-162.9 1155.59,-162.9 1155.59,-180.3 1155.59,-180.3 1155.59,-186.3 1149.59,-192.3 1143.59,-192.3"/>
<text xml:space="preserve" text-anchor="middle" x="1104" y="-174.65" font-family="Helvetica,sans-Serif" font-size="11.00">CLOSE_RUN</text>
<text xml:space="preserve" text-anchor="middle" x="1104" y="-161.15" font-family="Helvetica,sans-Serif" font-size="11.00">driving CLOSE</text>
</g>
<!-- CLOSE_RODCLEAR&#45;&gt;CLOSE_RUN -->
<g id="edge6" class="edge">
<title>CLOSE_RODCLEAR&#45;&gt;CLOSE_RUN</title>
<path fill="none" stroke="#444444" d="M1113.91,-268.31C1112.07,-250.53 1109.36,-224.34 1107.24,-203.86"/>
<polygon fill="#444444" stroke="#444444" points="1110.73,-203.65 1106.22,-194.06 1103.77,-204.37 1110.73,-203.65"/>
<text xml:space="preserve" text-anchor="start" x="1111.07" y="-229.88" font-family="Helvetica,sans-Serif" font-size="9.00"> &#160;rod confirmed retracted</text>
<text xml:space="preserve" text-anchor="start" x="1111.07" y="-218.62" font-family="Helvetica,sans-Serif" font-size="9.00"> &#160;travel budget starts here</text>
</g>
<!-- CLOSE_RODCLEAR&#45;&gt;FAULT -->
<g id="edge13" class="edge">
<title>CLOSE_RODCLEAR&#45;&gt;FAULT</title>
<path fill="none" stroke="#c62828" stroke-dasharray="5,2" d="M1052.2,-271.25C1012.6,-256.96 964.62,-232.36 939.5,-192.3 916.17,-155.09 919.57,-102.39 925.08,-69.13"/>
<polygon fill="#c62828" stroke="#c62828" points="928.52,-69.78 926.89,-59.31 921.63,-68.51 928.52,-69.78"/>
<text xml:space="preserve" text-anchor="start" x="939.5" y="-174.3" font-family="Helvetica,sans-Serif" font-size="9.00" fill="#b71c1c"> &#160;rod never confirmed</text>
<text xml:space="preserve" text-anchor="start" x="939.5" y="-163.05" font-family="Helvetica,sans-Serif" font-size="9.00" fill="#b71c1c"> &#160;(roofRodClearBudget)</text>
</g>
<!-- OPEN_KICK&#45;&gt;OPEN_SETTLE -->
<g id="edge2" class="edge">
<title>OPEN_KICK&#45;&gt;OPEN_SETTLE</title>
<path fill="none" stroke="#444444" d="M150.15,-261.67C145.21,-256.24 140.56,-250.27 137,-244.05 130.02,-231.86 125.53,-217.02 122.68,-204.04"/>
<polygon fill="#444444" stroke="#444444" points="126.13,-203.4 120.79,-194.25 119.25,-204.73 126.13,-203.4"/>
<text xml:space="preserve" text-anchor="start" x="137" y="-229.88" font-family="Helvetica,sans-Serif" font-size="9.00"> &#160;roof_kick_time elapsed</text>
<text xml:space="preserve" text-anchor="start" x="137" y="-218.62" font-family="Helvetica,sans-Serif" font-size="9.00"> &#160;→ stopHalf()</text>
</g>
<!-- OPEN_RUN&#45;&gt;IDLE -->
<g id="edge9" class="edge">
<title>OPEN_RUN&#45;&gt;IDLE</title>
<path fill="none" stroke="#1565c0" d="M167.18,-44.98C221.74,-52.7 312.44,-64.53 391,-69.9 417.08,-71.68 1313.69,-69.24 1332,-87.9 1352.18,-108.47 1351.32,-325.82 1332,-347.2 1327.43,-352.26 919.47,-390.58 790.57,-402.57"/>
<polygon fill="#1565c0" stroke="#1565c0" points="790.48,-399.07 780.85,-403.48 791.13,-406.04 790.48,-399.07"/>
<text xml:space="preserve" text-anchor="start" x="1346.81" y="-224.25" font-family="Helvetica,sans-Serif" font-size="9.00" fill="#1565c0"> &#160;last half done</text>
</g>
<!-- OPEN_RUN&#45;&gt;OPEN_KICK -->
<g id="edge4" class="edge">
<title>OPEN_RUN&#45;&gt;OPEN_KICK</title>
<path fill="none" stroke="#1565c0" d="M167.13,-37.83C205.76,-40.86 257.35,-52 284,-87.9 326.64,-145.34 288.32,-187.13 245,-244.05 242.31,-247.58 239.26,-250.94 235.98,-254.11"/>
<polygon fill="#1565c0" stroke="#1565c0" points="233.8,-251.37 228.59,-260.59 238.42,-256.63 233.8,-251.37"/>
<text xml:space="preserve" text-anchor="start" x="301.17" y="-174.3" font-family="Helvetica,sans-Serif" font-size="9.00" fill="#1565c0"> &#160;half fully open → stopHalf()</text>
<text xml:space="preserve" text-anchor="start" x="301.17" y="-163.05" font-family="Helvetica,sans-Serif" font-size="9.00" fill="#1565c0"> &#160;next half</text>
</g>
<!-- CLOSE_TIGHTEN -->
<g id="node7" class="node">
<title>CLOSE_TIGHTEN</title>
<path fill="#c8e6c9" stroke="#4caf50" d="M1168.21,-57.4C1168.21,-57.4 1065.79,-57.4 1065.79,-57.4 1059.79,-57.4 1053.79,-51.4 1053.79,-45.4 1053.79,-45.4 1053.79,-28 1053.79,-28 1053.79,-22 1059.79,-16 1065.79,-16 1065.79,-16 1168.21,-16 1168.21,-16 1174.21,-16 1180.21,-22 1180.21,-28 1180.21,-28 1180.21,-45.4 1180.21,-45.4 1180.21,-51.4 1174.21,-57.4 1168.21,-57.4"/>
<text xml:space="preserve" text-anchor="middle" x="1117" y="-39.75" font-family="Helvetica,sans-Serif" font-size="11.00">CLOSE_TIGHTEN</text>
<text xml:space="preserve" text-anchor="middle" x="1117" y="-26.25" font-family="Helvetica,sans-Serif" font-size="11.00">still driving CLOSE</text>
</g>
<!-- CLOSE_RUN&#45;&gt;CLOSE_TIGHTEN -->
<g id="edge7" class="edge">
<title>CLOSE_RUN&#45;&gt;CLOSE_TIGHTEN</title>
<path fill="none" stroke="#444444" d="M1105.97,-150.42C1108.1,-128.73 1111.49,-93.98 1113.96,-68.8"/>
<polygon fill="#444444" stroke="#444444" points="1117.41,-69.44 1114.9,-59.15 1110.45,-68.76 1117.41,-69.44"/>
<text xml:space="preserve" text-anchor="start" x="1112.05" y="-107.48" font-family="Helvetica,sans-Serif" font-size="9.00"> &#160;both closed switches engaged</text>
</g>
<!-- CLOSE_RUN&#45;&gt;FAULT -->
<g id="edge12" class="edge">
<title>CLOSE_RUN&#45;&gt;FAULT</title>
<path fill="none" stroke="#c62828" stroke-dasharray="5,2" d="M1052.19,-154.58C1022.77,-145.33 991.26,-135.11 988.5,-132.9 967.52,-116.1 952.6,-89.24 943.38,-68.33"/>
<polygon fill="#c62828" stroke="#c62828" points="946.62,-67 939.54,-59.12 940.16,-69.69 946.62,-67"/>
<text xml:space="preserve" text-anchor="start" x="988.5" y="-113.1" font-family="Helvetica,sans-Serif" font-size="9.00" fill="#b71c1c"> &#160;still reports open after</text>
<text xml:space="preserve" text-anchor="start" x="988.5" y="-101.85" font-family="Helvetica,sans-Serif" font-size="9.00" fill="#b71c1c"> &#160;roof_close_start_timeout</text>
</g>
<!-- CLOSE_TIGHTEN&#45;&gt;IDLE -->
<g id="edge10" class="edge">
<title>CLOSE_TIGHTEN&#45;&gt;IDLE</title>
<path fill="none" stroke="#1565c0" d="M1180.59,-44.33C1243.46,-51.99 1334.19,-66.38 1362,-87.9 1453.15,-158.43 1460.04,-283.5 1364,-347.2 1316.23,-378.89 917.69,-398.9 790.7,-404.52"/>
<polygon fill="#1565c0" stroke="#1565c0" points="790.63,-401.02 780.8,-404.96 790.94,-408.02 790.63,-401.02"/>
<text xml:space="preserve" text-anchor="start" x="1433.23" y="-224.25" font-family="Helvetica,sans-Serif" font-size="9.00" fill="#1565c0"> &#160;last half done</text>
</g>
<!-- CLOSE_TIGHTEN&#45;&gt;CLOSE_RODCLEAR -->
<g id="edge8" class="edge">
<title>CLOSE_TIGHTEN&#45;&gt;CLOSE_RODCLEAR</title>
<path fill="none" stroke="#1565c0" d="M1180.41,-43.69C1209.36,-49.97 1241.11,-62.6 1259,-87.9 1279.29,-116.59 1257.06,-217.54 1234,-244.05 1222.57,-257.19 1206.84,-266.46 1190.6,-272.99"/>
<polygon fill="#1565c0" stroke="#1565c0" points="1189.5,-269.66 1181.31,-276.38 1191.9,-276.24 1189.5,-269.66"/>
<text xml:space="preserve" text-anchor="start" x="1265.1" y="-174.3" font-family="Helvetica,sans-Serif" font-size="9.00" fill="#1565c0"> &#160;roof_close_overrun elapsed</text>
<text xml:space="preserve" text-anchor="start" x="1265.1" y="-163.05" font-family="Helvetica,sans-Serif" font-size="9.00" fill="#1565c0"> &#160;→ stopHalf(), next half</text>
</g>
<!-- FAULT&#45;&gt;IDLE -->
<g id="edge15" class="edge">
<title>FAULT&#45;&gt;IDLE</title>
<path fill="none" stroke="#00695c" d="M990.54,-57.86C1006.41,-62.58 1023.71,-67.06 1040,-69.9 1110.6,-82.22 1295.19,-61.98 1362,-87.9 1451.72,-122.71 1543.71,-153.19 1512,-244.05 1492.7,-299.34 1480.25,-317.12 1430,-347.2 1375.01,-380.11 926.28,-399.58 790.67,-404.75"/>
<polygon fill="#00695c" stroke="#00695c" points="790.64,-401.25 780.78,-405.12 790.91,-408.24 790.64,-401.25"/>
<text xml:space="preserve" text-anchor="start" x="1518.38" y="-235.5" font-family="Helvetica,sans-Serif" font-size="9.00" fill="#00695c"> &#160;Roof.clearMotionFault()</text>
<text xml:space="preserve" text-anchor="start" x="1518.38" y="-224.25" font-family="Helvetica,sans-Serif" font-size="9.00" fill="#00695c"> &#160;re&#45;latches on the next poll</text>
<text xml:space="preserve" text-anchor="start" x="1518.38" y="-213" font-family="Helvetica,sans-Serif" font-size="9.00" fill="#00695c"> &#160;if still live</text>
</g>
<!-- ANY -->
<g id="node9" class="node">
<title>ANY</title>
<polygon fill="#fff8e1" stroke="#ffb300" points="740.09,-69.9 399.91,-69.9 399.91,-3.5 746.09,-3.5 746.09,-63.9 740.09,-69.9"/>
<polyline fill="none" stroke="#ffb300" points="740.09,-69.9 740.09,-63.9"/>
<polyline fill="none" stroke="#ffb300" points="746.09,-63.9 740.09,-63.9"/>
<text xml:space="preserve" text-anchor="start" x="412.88" y="-53.25" font-family="Helvetica,sans-Serif" font-weight="bold" font-size="11.00" fill="#5d4037">from any running phase</text>
<text xml:space="preserve" text-anchor="start" x="412.88" y="-42.25" font-family="Helvetica,sans-Serif" font-size="11.00" fill="#5d4037"> &#160;&#160;&#160;&#160;&#160;&#160;&#160;&#160;&#160;&#160;&#160;&#160;&#160;&#160;&#160;</text>
<text xml:space="preserve" text-anchor="start" x="472.88" y="-42.25" font-family="Helvetica,sans-Serif" font-size="10.00" fill="#5d4037"> &#160;&#160;&#160;&#160;&#160;&#160;&#160;&#160;&#160;&#160;&#160;&#160;&#160;&#160;&#160;· roof_travel_timeout for this half exceeded</text>
<text xml:space="preserve" text-anchor="start" x="412.88" y="-32.2" font-family="Helvetica,sans-Serif" font-size="10.00" fill="#5d4037"> &#160;&#160;&#160;&#160;&#160;&#160;&#160;&#160;&#160;&#160;&#160;&#160;&#160;&#160;&#160;· a Roof consistency check latched (any status read)</text>
<text xml:space="preserve" text-anchor="start" x="412.88" y="-22.2" font-family="Helvetica,sans-Serif" font-size="10.00" fill="#5d4037"> &#160;&#160;&#160;&#160;&#160;&#160;&#160;&#160;&#160;&#160;&#160;&#160;&#160;&#160;&#160;· a relay write raised</text>
<text xml:space="preserve" text-anchor="start" x="549" y="-12.2" font-family="Helvetica,sans-Serif" font-size="10.00" fill="#5d4037"> &#160;&#160;&#160;&#160;&#160;&#160;&#160;&#160;&#160;&#160;&#160;&#160;&#160;&#160;&#160;</text>
</g>
<!-- ANY&#45;&gt;FAULT -->
<g id="edge14" class="edge">
<title>ANY&#45;&gt;FAULT</title>
<path fill="none" stroke="#c62828" stroke-dasharray="5,2" d="M746.45,-36.7C770.1,-36.7 793.88,-36.7 816.17,-36.7"/>
<polygon fill="#c62828" stroke="#c62828" points="816.16,-40.2 826.16,-36.7 816.16,-33.2 816.16,-40.2"/>
<text xml:space="preserve" text-anchor="start" x="755.12" y="-42.4" font-family="Helvetica,sans-Serif" font-size="9.00" fill="#b71c1c"> &#160;faultMotion()</text>
</g>
<!-- STOP -->
<g id="node10" class="node">
<title>STOP</title>
<path fill="#c8e6c9" stroke="none" d="M553.59,-429.85C553.59,-429.85 288.41,-429.85 288.41,-429.85 282.41,-429.85 276.41,-423.85 276.41,-417.85 276.41,-417.85 276.41,-396.45 276.41,-396.45 276.41,-390.45 282.41,-384.45 288.41,-384.45 288.41,-384.45 553.59,-384.45 553.59,-384.45 559.59,-384.45 565.59,-390.45 565.59,-396.45 565.59,-396.45 565.59,-417.85 565.59,-417.85 565.59,-423.85 559.59,-429.85 553.59,-429.85"/>
<text xml:space="preserve" text-anchor="start" x="289.38" y="-413.2" font-family="Helvetica,sans-Serif" font-weight="bold" font-size="11.00" fill="#00695c">command &quot;stop&quot;</text>
<text xml:space="preserve" text-anchor="start" x="289.38" y="-402.2" font-family="Helvetica,sans-Serif" font-size="11.00" fill="#00695c"> &#160;&#160;&#160;&#160;&#160;&#160;&#160;&#160;&#160;&#160;&#160;&#160;&#160;&#160;&#160;&#160;</text>
<text xml:space="preserve" text-anchor="start" x="353.12" y="-402.2" font-family="Helvetica,sans-Serif" font-size="9.00" fill="#00695c">straight to the relays, on the caller&#39;s thread:</text>
<text xml:space="preserve" text-anchor="start" x="289.38" y="-393.1" font-family="Helvetica,sans-Serif" font-size="9.00" fill="#00695c"> &#160;&#160;&#160;&#160;&#160;&#160;&#160;&#160;&#160;&#160;&#160;&#160;&#160;&#160;&#160;&#160;needs no board, no worker and no roofLock</text>
</g>
<!-- STOP&#45;&gt;IDLE -->
<g id="edge16" class="edge">
<title>STOP&#45;&gt;IDLE</title>
<path fill="none" stroke="#00695c" d="M565.22,-407.15C619.45,-407.15 676.79,-407.15 713.4,-407.15"/>
<polygon fill="#00695c" stroke="#00695c" points="713.02,-410.65 723.02,-407.15 713.02,-403.65 713.02,-410.65"/>
<text xml:space="preserve" text-anchor="start" x="574.42" y="-435.35" font-family="Helvetica,sans-Serif" font-size="9.00" fill="#00695c"> &#160;stopMotion(), then the worker</text>
<text xml:space="preserve" text-anchor="start" x="574.42" y="-424.1" font-family="Helvetica,sans-Serif" font-size="9.00" fill="#00695c"> &#160;drops the sequence and</text>
<text xml:space="preserve" text-anchor="start" x="574.42" y="-412.85" font-family="Helvetica,sans-Serif" font-size="9.00" fill="#00695c"> &#160;retracts any rod still out</text>
</g>
</g>
</svg>
