<?xml version="1.0" encoding="UTF-8" standalone="no"?>
<!DOCTYPE svg PUBLIC "-//W3C//DTD SVG 1.1//EN"
 "http://www.w3.org/Graphics/SVG/1.1/DTD/svg11.dtd">
<!-- Generated by graphviz version 14.1.2 (0)
 -->
<!-- Title: RoofMotion Pages: 1 -->
<svg width="1718pt" height="549pt"
 viewBox="0.00 0.00 1718.00 549.00" xmlns="http://www.w3.org/2000/svg" xmlns:xlink="http://www.w3.org/1999/xlink">
<g id="graph0" class="graph" transform="scale(1 1) rotate(0) translate(4 545.1)">
<title>RoofMotion</title>
<polygon fill="white" stroke="none" points="-4,4 -4,-545.1 1714.48,-545.1 1714.48,4 -4,4"/>
<text xml:space="preserve" text-anchor="start" x="720.99" y="-521" font-family="Helvetica,sans-Serif" font-weight="bold" font-size="18.00">Roof motion state machine</text>
<text xml:space="preserve" text-anchor="start" x="657.61" y="-503" font-family="Helvetica,sans-Serif" font-size="18.00"> &#160;&#160;&#160;&#160;&#160;&#160;&#160;&#160;&#160;&#160;</text>
<text xml:space="preserve" text-anchor="start" x="723.61" y="-503" font-family="Helvetica,sans-Serif" font-size="11.00">one step per worker poll · west opens first, east closes first</text>
<text xml:space="preserve" text-anchor="start" x="695.49" y="-485" font-family="Helvetica,sans-Serif" font-size="18.00"> &#160;&#160;&#160;&#160;&#160;&#160;&#160;&#160;&#160;&#160;</text>
<text xml:space="preserve" text-anchor="start" x="761.49" y="-485" font-family="Helvetica,sans-Serif" font-size="10.00" fill="#555555">green = a relay is energized · grey = both relays off</text>
<text xml:space="preserve" text-anchor="start" x="564.24" y="-467" font-family="Helvetica,sans-Serif" font-size="18.00"> &#160;&#160;&#160;&#160;&#160;&#160;&#160;&#160;&#160;&#160;</text>
<text xml:space="preserve" text-anchor="start" x="630.24" y="-467" font-family="Helvetica,sans-Serif" font-size="10.00" fill="#555555">a half already at its target is skipped from OPEN_KICK or CLOSE_RODCLEAR, before anything is energized</text>
<g id="clust1" class="cluster">
<title>cluster_open</title>
<path fill="#f6fbf3" stroke="#aed581" d="M20,-9.5C20,-9.5 380,-9.5 380,-9.5 386,-9.5 392,-15.5 392,-21.5 392,-21.5 392,-366.45 392,-366.45 392,-372.45 386,-378.45 380,-378.45 380,-378.45 20,-378.45 20,-378.45 14,-378.45 8,-372.45 8,-366.45 8,-366.45 8,-21.5 8,-21.5 8,-15.5 14,-9.5 20,-9.5"/>
<text xml:space="preserve" text-anchor="middle" x="200" y="-363.05" font-family="Helvetica,sans-Serif" font-size="12.00" fill="#33691e">opening a half &#160;&#160;(west, then east)</text>
</g>
<g id="clust2" class="cluster">
<title>cluster_close</title>
<path fill="#f7f5fc" stroke="#b39ddb" d="M1124,-9.5C1124,-9.5 1384,-9.5 1384,-9.5 1390,-9.5 1396,-15.5 1396,-21.5 1396,-21.5 1396,-352.95 1396,-352.95 1396,-358.95 1390,-364.95 1384,-364.95 1384,-364.95 1124,-364.95 1124,-364.95 1118,-364.95 1112,-358.95 1112,-352.95 1112,-352.95 1112,-21.5 1112,-21.5 1112,-15.5 1118,-9.5 1124,-9.5"/>
<text xml:space="preserve" text-anchor="middle" x="1254" y="-349.55" font-family="Helvetica,sans-Serif" font-size="12.00" fill="#4527a0">closing a half &#160;&#160;(east, then west)</text>
</g>
<!-- IDLE -->
<g id="node1" class="node">
<title>IDLE</title>
<path fill="#cfd8dc" stroke="#607d8b" d="M786,-456.4C786,-456.4 756,-456.4 756,-456.4 750,-456.4 744,-450.4 744,-444.4 744,-444.4 744,-432.4 744,-432.4 744,-426.4 750,-420.4 756,-420.4 756,-420.4 786,-420.4 786,-420.4 792,-420.4 798,-426.4 798,-432.4 798,-432.4 798,-444.4 798,-444.4 798,-450.4 792,-456.4 786,-456.4"/>
<text xml:space="preserve" text-anchor="middle" x="771" y="-434.7" font-family="Helvetica,sans-Serif" font-size="11.00">IDLE</text>
</g>
<!-- CLOSE_RODCLEAR -->
<g id="node3" class="node">
<title>CLOSE_RODCLEAR</title>
<path fill="#eceff1" stroke="#90a4ae" d="M1235.59,-334.7C1235.59,-334.7 1132.41,-334.7 1132.41,-334.7 1126.41,-334.7 1120.41,-328.7 1120.41,-322.7 1120.41,-322.7 1120.41,-305.3 1120.41,-305.3 1120.41,-299.3 1126.41,-293.3 1132.41,-293.3 1132.41,-293.3 1235.59,-293.3 1235.59,-293.3 1241.59,-293.3 1247.59,-299.3 1247.59,-305.3 1247.59,-305.3 1247.59,-322.7 1247.59,-322.7 1247.59,-328.7 1241.59,-334.7 1235.59,-334.7"/>
<text xml:space="preserve" text-anchor="middle" x="1184" y="-317.05" font-family="Helvetica,sans-Serif" font-size="11.00">CLOSE_RODCLEAR</text>
<text xml:space="preserve" text-anchor="middle" x="1184" y="-303.55" font-family="Helvetica,sans-Serif" font-size="11.00">waiting on the rod</text>
</g>
<!-- IDLE&#45;&gt;CLOSE_RODCLEAR -->
<g id="edge5" class="edge">
<title>IDLE&#45;&gt;CLOSE_RODCLEAR</title>
<path fill="none" stroke="#4527a0" d="M798.42,-429.27C860.98,-410.73 1016.04,-364.78 1109.36,-337.12"/>
<polygon fill="#4527a0" stroke="#4527a0" points="1110.1,-340.55 1118.69,-334.36 1108.11,-333.84 1110.1,-340.55"/>
<text xml:space="preserve" text-anchor="start" x="940.51" y="-389.15" font-family="Helvetica,sans-Serif" font-size="9.00"> &#160;command &quot;close&quot;</text>
</g>
<!-- OPEN_KICK -->
<g id="node4" class="node">
<title>OPEN_KICK</title>
<path fill="#c8e6c9" stroke="#4caf50" d="M319.59,-348.2C319.59,-348.2 78.41,-348.2 78.41,-348.2 72.41,-348.2 66.41,-342.2 66.41,-336.2 66.41,-336.2 66.41,-291.8 66.41,-291.8 66.41,-285.8 72.41,-279.8 78.41,-279.8 78.41,-279.8 319.59,-279.8 319.59,-279.8 325.59,-279.8 331.59,-285.8 331.59,-291.8 331.59,-291.8 331.59,-336.2 331.59,-336.2 331.59,-342.2 325.59,-348.2 319.59,-348.2"/>
<text xml:space="preserve" text-anchor="middle" x="199" y="-330.55" font-family="Helvetica,sans-Serif" font-size="11.00">OPEN_KICK</text>
<text xml:space="preserve" text-anchor="middle" x="199" y="-317.05" font-family="Helvetica,sans-Serif" font-size="11.00">driving OPEN</text>
<text xml:space="preserve" text-anchor="middle" x="199" y="-303.55" font-family="Helvetica,sans-Serif" font-size="11.00">rod goes out once the relay is closed,</text>
<text xml:space="preserve" text-anchor="middle" x="199" y="-290.05" font-family="Helvetica,sans-Serif" font-size="11.00">and is retried until the board acknowledges</text>
</g>
<!-- IDLE&#45;&gt;OPEN_KICK -->
<g id="edge1" class="edge">
<title>IDLE&#45;&gt;OPEN_KICK</title>
<path fill="none" stroke="#33691e" d="M743.8,-431.58C673,-416.43 479.08,-374.93 342.86,-345.78"/>
<polygon fill="#33691e" stroke="#33691e" points="343.91,-342.43 333.4,-343.76 342.45,-349.27 343.91,-342.43"/>
<text xml:space="preserve" text-anchor="start" x="569.66" y="-389.15" font-family="Helvetica,sans-Serif" font-size="9.00"> &#160;command &quot;open&quot;</text>
</g>
<!-- OPEN_SETTLE -->
<g id="node2" class="node">
<title>OPEN_SETTLE</title>
<path fill="#eceff1" stroke="#90a4ae" d="M207.83,-210.05C207.83,-210.05 28.17,-210.05 28.17,-210.05 22.17,-210.05 16.17,-204.05 16.17,-198.05 16.17,-198.05 16.17,-180.65 16.17,-180.65 16.17,-174.65 22.17,-168.65 28.17,-168.65 28.17,-168.65 207.83,-168.65 207.83,-168.65 213.83,-168.65 219.83,-174.65 219.83,-180.65 219.83,-180.65 219.83,-198.05 219.83,-198.05 219.83,-204.05 213.83,-210.05 207.83,-210.05"/>
<text xml:space="preserve" text-anchor="middle" x="118" y="-192.4" font-family="Helvetica,sans-Serif" font-size="11.00">OPEN_SETTLE</text>
<text xml:space="preserve" text-anchor="middle" x="118" y="-178.9" font-family="Helvetica,sans-Serif" font-size="11.00">relays off, rod running its stroke</text>
</g>
<!-- OPEN_RUN -->
<g id="node5" class="node">
<title>OPEN_RUN</title>
<path fill="#c8e6c9" stroke="#4caf50" d="M154.96,-58.9C154.96,-58.9 81.04,-58.9 81.04,-58.9 75.04,-58.9 69.04,-52.9 69.04,-46.9 69.04,-46.9 69.04,-29.5 69.04,-29.5 69.04,-23.5 75.04,-17.5 81.04,-17.5 81.04,-17.5 154.96,-17.5 154.96,-17.5 160.96,-17.5 166.96,-23.5 166.96,-29.5 166.96,-29.5 166.96,-46.9 166.96,-46.9 166.96,-52.9 160.96,-58.9 154.96,-58.9"/>
<text xml:space="preserve" text-anchor="middle" x="118" y="-41.25" font-family="Helvetica,sans-Serif" font-size="11.00">OPEN_RUN</text>
<text xml:space="preserve" text-anchor="middle" x="118" y="-27.75" font-family="Helvetica,sans-Serif" font-size="11.00">driving OPEN</text>
</g>
<!-- OPEN_SETTLE&#45;&gt;OPEN_RUN -->
<g id="edge3" class="edge">
<title>OPEN_SETTLE&#45;&gt;OPEN_RUN</title>
<path fill="none" stroke="#444444" d="M118,-168.23C118,-143.08 118,-99.73 118,-70.29"/>
<polygon fill="#444444" stroke="#444444" points="121.5,-70.51 118,-60.51 114.5,-70.51 121.5,-70.51"/>
<text xml:space="preserve" text-anchor="start" x="118" y="-125.23" font-family="Helvetica,sans-Serif" font-size="9.00"> &#160;rod stroke complete (REQ cleared)</text>
<text xml:space="preserve" text-anchor="start" x="118" y="-113.98" font-family="Helvetica,sans-Serif" font-size="9.00"> &#160;and the closed switches are clear</text>
</g>
<!-- FAULT -->
<g id="node8" class="node">
<title>FAULT</title>
<path fill="#ffcdd2" stroke="#c62828" d="M1092.09,-58.9C1092.09,-58.9 907.91,-58.9 907.91,-58.9 901.91,-58.9 895.91,-52.9 895.91,-46.9 895.91,-46.9 895.91,-29.5 895.91,-29.5 895.91,-23.5 901.91,-17.5 907.91,-17.5 907.91,-17.5 1092.09,-17.5 1092.09,-17.5 1098.09,-17.5 1104.09,-23.5 1104.09,-29.5 1104.09,-29.5 1104.09,-46.9 1104.09,-46.9 1104.09,-52.9 1098.09,-58.9 1092.09,-58.9"/>
<text xml:space="preserve" text-anchor="middle" x="1000" y="-41.25" font-family="Helvetica,sans-Serif" font-size="11.00" fill="#b71c1c">FAULT</text>
<text xml:space="preserve" text-anchor="middle" x="1000" y="-27.75" font-family="Helvetica,sans-Serif" font-size="11.00" fill="#b71c1c">latched, everything de&#45;energized</text>
</g>
<!-- OPEN_SETTLE&#45;&gt;FAULT -->
<g id="edge11" class="edge">
<title>OPEN_SETTLE&#45;&gt;FAULT</title>
<path fill="none" stroke="#c62828" stroke-dasharray="5,2" d="M220.15,-170.93C224.83,-170.15 229.46,-169.39 234,-168.65 495.51,-125.97 562.37,-124.16 823,-76.4 847.24,-71.96 873.25,-66.74 897.67,-61.65"/>
<polygon fill="#c62828" stroke="#c62828" points="898.22,-65.11 907.29,-59.63 896.78,-58.26 898.22,-65.11"/>
<text xml:space="preserve" text-anchor="start" x="711.19" y="-142.1" font-family="Helvetica,sans-Serif" font-size="9.00" fill="#b71c1c"> &#160;the extend was never acknowledged,</text>
<text xml:space="preserve" text-anchor="start" x="711.19" y="-130.85" font-family="Helvetica,sans-Serif" font-size="9.00" fill="#b71c1c"> &#160;so there is no stroke to wait for;</text>
<text xml:space="preserve" text-anchor="start" x="711.19" y="-119.6" font-family="Helvetica,sans-Serif" font-size="9.00" fill="#b71c1c"> &#160;or it did not finish within</text>
<text xml:space="preserve" text-anchor="start" x="711.19" y="-108.35" font-family="Helvetica,sans-Serif" font-size="9.00" fill="#b71c1c"> &#160;roof_rod_timeout; or the half is</text>
<text xml:space="preserve" text-anchor="start" x="711.19" y="-97.1" font-family="Helvetica,sans-Serif" font-size="9.00" fill="#b71c1c"> &#160;still closed after a full stroke</text>
</g>
<!-- CLOSE_RUN -->
<g id="node6" class="node">
<title>CLOSE_RUN</title>
<path fill="#c8e6c9" stroke="#4caf50" d="M1211.59,-210.05C1211.59,-210.05 1132.41,-210.05 1132.41,-210.05 1126.41,-210.05 1120.41,-204.05 1120.41,-198.05 1120.41,-198.05 1120.41,-180.65 1120.41,-180.65 1120.41,-174.65 1126.41,-168.65 1132.41,-168.65 1132.41,-168.65 1211.59,-168.65 1211.59,-168.65 1217.59,-168.65 1223.59,-174.65 1223.59,-180.65 1223.59,-180.65 1223.59,-198.05 1223.59,-198.05 1223.59,-204.05 1217.59,-210.05 1211.59,-210.05"/>
<text xml:space="preserve" text-anchor="middle" x="1172" y="-192.4" font-family="Helvetica,sans-Serif" font-size="11.00">CLOSE_RUN</text>
<text xml:space="preserve" text-anchor="middle" x="1172" y="-178.9" font-family="Helvetica,sans-Serif" font-size="11.00">driving CLOSE</text>
</g>
<!-- CLOSE_RODCLEAR&#45;&gt;CLOSE_RUN -->
<g id="edge6" class="edge">
<title>CLOSE_RODCLEAR&#45;&gt;CLOSE_RUN</title>
<path fill="none" stroke="#444444" d="M1182.05,-293.02C1180.15,-273.69 1177.26,-244.09 1175.06,-221.64"/>
<polygon fill="#444444" stroke="#444444" points="1178.56,-221.44 1174.1,-211.83 1171.59,-222.12 1178.56,-221.44"/>
<text xml:space="preserve" text-anchor="start" x="1178.72" y="-247.62" font-family="Helvetica,sans-Serif" font-size="9.00"> &#160;rod confirmed retracted</text>
<text xml:space="preserve" text-anchor="start" x="1178.72" y="-236.38" font-family="Helvetica,sans-Serif" font-size="9.00"> &#160;travel budget starts here</text>
</g>
<!-- CLOSE_RODCLEAR&#45;&gt;FAULT -->
<g id="edge13" class="edge">
<title>CLOSE_RODCLEAR&#45;&gt;FAULT</title>
<path fill="none" stroke="#c62828" stroke-dasharray="5,2" d="M1120.01,-293.39C1080.34,-277.63 1032.35,-251.2 1007.5,-210.05 981.6,-167.17 986.58,-106.59 992.99,-70.27"/>
<polygon fill="#c62828" stroke="#c62828" points="996.35,-71.35 994.8,-60.87 989.47,-70.03 996.35,-71.35"/>
<text xml:space="preserve" text-anchor="start" x="1007.5" y="-192.05" font-family="Helvetica,sans-Serif" font-size="9.00" fill="#b71c1c"> &#160;rod never confirmed</text>
<text xml:space="preserve" text-anchor="start" x="1007.5" y="-180.8" font-family="Helvetica,sans-Serif" font-size="9.00" fill="#b71c1c"> &#160;(roofRodClearBudget)</text>
</g>
<!-- OPEN_KICK&#45;&gt;OPEN_SETTLE -->
<g id="edge2" class="edge">
<title>OPEN_KICK&#45;&gt;OPEN_SETTLE</title>
<path fill="none" stroke="#444444" d="M140.59,-279.51C134.93,-274.23 129.87,-268.32 126,-261.8 118.98,-249.96 116.52,-235.07 116,-221.95"/>
<polygon fill="#444444" stroke="#444444" points="119.5,-222.04 115.99,-212.05 112.5,-222.05 119.5,-222.04"/>
<text xml:space="preserve" text-anchor="start" x="126" y="-247.62" font-family="Helvetica,sans-Serif" font-size="9.00"> &#160;roof_kick_time elapsed</text>
<text xml:space="preserve" text-anchor="start" x="126" y="-236.38" font-family="Helvetica,sans-Serif" font-size="9.00"> &#160;→ stopHalf()</text>
</g>
<!-- OPEN_RUN&#45;&gt;IDLE -->
<g id="edge9" class="edge">
<title>OPEN_RUN&#45;&gt;IDLE</title>
<path fill="none" stroke="#1565c0" d="M167.13,-47.67C221.64,-56.65 312.31,-70.36 391,-76.4 418.95,-78.55 1380.36,-74.4 1400,-94.4 1422.12,-116.92 1421.25,-355.11 1400,-378.45 1394.99,-383.95 945.72,-422.55 809.63,-434.13"/>
<polygon fill="#1565c0" stroke="#1565c0" points="809.36,-430.64 799.69,-434.97 809.95,-437.61 809.36,-430.64"/>
<text xml:space="preserve" text-anchor="start" x="1416.26" y="-242" font-family="Helvetica,sans-Serif" font-size="9.00" fill="#1565c0"> &#160;last half done</text>
</g>
<!-- OPEN_RUN&#45;&gt;OPEN_KICK -->
<g id="edge4" class="edge">
<title>OPEN_RUN&#45;&gt;OPEN_KICK</title>
<path fill="none" stroke="#1565c0" d="M167.27,-40.88C205.98,-45.11 257.62,-57.82 284,-94.4 323.39,-149 276.44,-224.26 238.25,-270.72"/>
<polygon fill="#1565c0" stroke="#1565c0" points="235.74,-268.27 231.97,-278.17 241.09,-272.77 235.74,-268.27"/>
<text xml:space="preserve" text-anchor="start" x="295.33" y="-192.05" font-family="Helvetica,sans-Serif" font-size="9.00" fill="#1565c0"> &#160;half fully open → stopHalf()</text>
<text xml:space="preserve" text-anchor="start" x="295.33" y="-180.8" font-family="Helvetica,sans-Serif" font-size="9.00" fill="#1565c0"> &#160;next half</text>
</g>
<!-- CLOSE_TIGHTEN -->
<g id="node7" class="node">
<title>CLOSE_TIGHTEN</title>
<path fill="#c8e6c9" stroke="#4caf50" d="M1236.21,-58.9C1236.21,-58.9 1133.79,-58.9 1133.79,-58.9 1127.79,-58.9 1121.79,-52.9 1121.79,-46.9 1121.79,-46.9 1121.79,-29.5 1121.79,-29.5 1121.79,-23.5 1127.79,-17.5 1133.79,-17.5 1133.79,-17.5 1236.21,-17.5 1236.21,-17.5 1242.21,-17.5 1248.21,-23.5 1248.21,-29.5 1248.21,-29.5 1248.21,-46.9 1248.21,-46.9 1248.21,-52.9 1242.21,-58.9 1236.21,-58.9"/>
<text xml:space="preserve" text-anchor="middle" x="1185" y="-41.25" font-family="Helvetica,sans-Serif" font-size="11.00">CLOSE_TIGHTEN</text>
<text xml:space="preserve" text-anchor="middle" x="1185" y="-27.75" font-family="Helvetica,sans-Serif" font-size="11.00">still driving CLOSE</text>
</g>
<!-- CLOSE_RUN&#45;&gt;CLOSE_TIGHTEN -->
<g id="edge7" class="edge">
<title>CLOSE_RUN&#45;&gt;CLOSE_TIGHTEN</title>
<path fill="none" stroke="#444444" d="M1173.75,-168.23C1175.95,-143.08 1179.72,-99.73 1182.29,-70.29"/>
<polygon fill="#444444" stroke="#444444" points="1185.76,-70.77 1183.14,-60.5 1178.79,-70.16 1185.76,-70.77"/>
<text xml:space="preserve" text-anchor="start" x="1180.05" y="-119.6" font-family="Helvetica,sans-Serif" font-size="9.00"> &#160;both closed switches engaged</text>
</g>
<!-- CLOSE_RUN&#45;&gt;FAULT -->
<g id="edge12" class="edge">
<title>CLOSE_RUN&#45;&gt;FAULT</title>
<path fill="none" stroke="#c62828" stroke-dasharray="5,2" d="M1120.01,-172.51C1090.23,-163.27 1058.21,-152.98 1055.5,-150.65 1030.93,-129.49 1016.09,-94.86 1008.02,-69.81"/>
<polygon fill="#c62828" stroke="#c62828" points="1011.46,-69.07 1005.22,-60.5 1004.76,-71.09 1011.46,-69.07"/>
<text xml:space="preserve" text-anchor="start" x="1055.5" y="-125.23" font-family="Helvetica,sans-Serif" font-size="9.00" fill="#b71c1c"> &#160;still reports open after</text>
<text xml:space="preserve" text-anchor="start" x="1055.5" y="-113.98" font-family="Helvetica,sans-Serif" font-size="9.00" fill="#b71c1c"> &#160;roof_close_start_timeout</text>
</g>
<!-- CLOSE_TIGHTEN&#45;&gt;IDLE -->
<g id="edge10" class="edge">
<title>CLOSE_TIGHTEN&#45;&gt;IDLE</title>
<path fill="none" stroke="#1565c0" d="M1248.49,-46.98C1311.53,-55.83 1402.61,-72.02 1430,-94.4 1491.2,-144.42 1508.07,-184.86 1490,-261.8 1476.76,-318.17 1479.81,-345.8 1432,-378.45 1380.51,-413.61 943.49,-431.46 809.74,-436.13"/>
<polygon fill="#1565c0" stroke="#1565c0" points="809.86,-432.63 799.99,-436.47 810.1,-439.62 809.86,-432.63"/>
<text xml:space="preserve" text-anchor="start" x="1495.83" y="-242" font-family="Helvetica,sans-Serif" font-size="9.00" fill="#1565c0"> &#160;last half done</text>
</g>
<!-- CLOSE_TIGHTEN&#45;&gt;CLOSE_RODCLEAR -->
<g id="edge8" class="edge">
<title>CLOSE_TIGHTEN&#45;&gt;CLOSE_RODCLEAR</title>
<path fill="none" stroke="#1565c0" d="M1248.57,-47.48C1277.56,-54.78 1309.3,-68.53 1327,-94.4 1348.24,-125.44 1325.98,-232.82 1302,-261.8 1290.56,-275.62 1274.69,-285.81 1258.28,-293.28"/>
<polygon fill="#1565c0" stroke="#1565c0" points="1257.29,-289.9 1249.43,-297.01 1260,-296.36 1257.29,-289.9"/>
<text xml:space="preserve" text-anchor="start" x="1332.89" y="-192.05" font-family="Helvetica,sans-Serif" font-size="9.00" fill="#1565c0"> &#160;roof_close_overrun elapsed</text>
<text xml:space="preserve" text-anchor="start" x="1332.89" y="-180.8" font-family="Helvetica,sans-Serif" font-size="9.00" fill="#1565c0"> &#160;→ stopHalf(), next half</text>
</g>
<!-- FAULT&#45;&gt;IDLE -->
<g id="edge15" class="edge">
<title>FAULT&#45;&gt;IDLE</title>
<path fill="none" stroke="#00695c" d="M1049.22,-59.36C1067.39,-65.94 1088.35,-72.54 1108,-76.4 1178.33,-90.2 1363.76,-67.03 1430,-94.4 1522.33,-132.55 1610.13,-166.55 1580,-261.8 1560.89,-322.22 1552.3,-345.78 1498,-378.45 1438.7,-414.13 950.56,-431.86 809.21,-436.28"/>
<polygon fill="#00695c" stroke="#00695c" points="809.53,-432.77 799.64,-436.57 809.75,-439.76 809.53,-432.77"/>
<text xml:space="preserve" text-anchor="start" x="1585.98" y="-253.25" font-family="Helvetica,sans-Serif" font-size="9.00" fill="#00695c"> &#160;Roof.clearMotionFault()</text>
<text xml:space="preserve" text-anchor="start" x="1585.98" y="-242" font-family="Helvetica,sans-Serif" font-size="9.00" fill="#00695c"> &#160;re&#45;latches on the next poll</text>
<text xml:space="preserve" text-anchor="start" x="1585.98" y="-230.75" font-family="Helvetica,sans-Serif" font-size="9.00" fill="#00695c"> &#160;if still live</text>
</g>
<!-- ANY -->
<g id="node9" class="node">
<title>ANY</title>
<polygon fill="#fff8e1" stroke="#ffb300" points="808.21,-76.4 399.79,-76.4 399.79,0 814.21,0 814.21,-70.4 808.21,-76.4"/>
<polyline fill="none" stroke="#ffb300" points="808.21,-76.4 808.21,-70.4"/>
<polyline fill="none" stroke="#ffb300" points="814.21,-70.4 808.21,-70.4"/>
<text xml:space="preserve" text-anchor="start" x="412.75" y="-59.75" font-family="Helvetica,sans-Serif" font-weight="bold" font-size="11.00" fill="#5d4037">from any running phase</text>
<text xml:space="preserve" text-anchor="start" x="412.75" y="-48.75" font-family="Helvetica,sans-Serif" font-size="11.00" fill="#5d4037"> &#160;&#160;&#160;&#160;&#160;&#160;&#160;&#160;&#160;&#160;&#160;&#160;&#160;&#160;&#160;</text>
<text xml:space="preserve" text-anchor="start" x="472.75" y="-48.75" font-family="Helvetica,sans-Serif" font-size="10.00" fill="#5d4037"> &#160;&#160;&#160;&#160;&#160;&#160;&#160;&#160;&#160;&#160;&#160;&#160;&#160;&#160;&#160;· roof_travel_timeout for this half exceeded</text>
<text xml:space="preserve" text-anchor="start" x="412.75" y="-38.7" font-family="Helvetica,sans-Serif" font-size="10.00" fill="#5d4037"> &#160;&#160;&#160;&#160;&#160;&#160;&#160;&#160;&#160;&#160;&#160;&#160;&#160;&#160;&#160;· a Roof consistency check latched (any status read)</text>
<text xml:space="preserve" text-anchor="start" x="412.75" y="-28.7" font-family="Helvetica,sans-Serif" font-size="10.00" fill="#5d4037"> &#160;&#160;&#160;&#160;&#160;&#160;&#160;&#160;&#160;&#160;&#160;&#160;&#160;&#160;&#160;· a relay write raised</text>
<text xml:space="preserve" text-anchor="start" x="412.75" y="-18.7" font-family="Helvetica,sans-Serif" font-size="10.00" fill="#5d4037"> &#160;&#160;&#160;&#160;&#160;&#160;&#160;&#160;&#160;&#160;&#160;&#160;&#160;&#160;&#160;· the board refused a command (CMDUNKN) past writeCmd()&#39;s retries</text>
<text xml:space="preserve" text-anchor="start" x="583" y="-8.7" font-family="Helvetica,sans-Serif" font-size="10.00" fill="#5d4037"> &#160;&#160;&#160;&#160;&#160;&#160;&#160;&#160;&#160;&#160;&#160;&#160;&#160;&#160;&#160;</text>
</g>
<!-- ANY&#45;&gt;FAULT -->
<g id="edge14" class="edge">
<title>ANY&#45;&gt;FAULT</title>
<path fill="none" stroke="#c62828" stroke-dasharray="5,2" d="M814.43,-38.2C838.47,-38.2 862.3,-38.2 884.45,-38.2"/>
<polygon fill="#c62828" stroke="#c62828" points="884.37,-41.7 894.37,-38.2 884.37,-34.7 884.37,-41.7"/>
<text xml:space="preserve" text-anchor="start" x="823.19" y="-43.9" font-family="Helvetica,sans-Serif" font-size="9.00" fill="#b71c1c"> &#160;faultMotion()</text>
</g>
<!-- STOP -->
<g id="node10" class="node">
<title>STOP</title>
<path fill="#c8e6c9" stroke="none" d="M572.59,-461.1C572.59,-461.1 307.41,-461.1 307.41,-461.1 301.41,-461.1 295.41,-455.1 295.41,-449.1 295.41,-449.1 295.41,-427.7 295.41,-427.7 295.41,-421.7 301.41,-415.7 307.41,-415.7 307.41,-415.7 572.59,-415.7 572.59,-415.7 578.59,-415.7 584.59,-421.7 584.59,-427.7 584.59,-427.7 584.59,-449.1 584.59,-449.1 584.59,-455.1 578.59,-461.1 572.59,-461.1"/>
<text xml:space="preserve" text-anchor="start" x="308.38" y="-444.45" font-family="Helvetica,sans-Serif" font-weight="bold" font-size="11.00" fill="#00695c">command &quot;stop&quot;</text>
<text xml:space="preserve" text-anchor="start" x="308.38" y="-433.45" font-family="Helvetica,sans-Serif" font-size="11.00" fill="#00695c"> &#160;&#160;&#160;&#160;&#160;&#160;&#160;&#160;&#160;&#160;&#160;&#160;&#160;&#160;&#160;&#160;</text>
<text xml:space="preserve" text-anchor="start" x="372.12" y="-433.45" font-family="Helvetica,sans-Serif" font-size="9.00" fill="#00695c">straight to the relays, on the caller&#39;s thread:</text>
<text xml:space="preserve" text-anchor="start" x="308.38" y="-424.35" font-family="Helvetica,sans-Serif" font-size="9.00" fill="#00695c"> &#160;&#160;&#160;&#160;&#160;&#160;&#160;&#160;&#160;&#160;&#160;&#160;&#160;&#160;&#160;&#160;needs no board, no worker and no roofLock</text>
</g>
<!-- STOP&#45;&gt;IDLE -->
<g id="edge16" class="edge">
<title>STOP&#45;&gt;IDLE</title>
<path fill="none" stroke="#00695c" d="M584.22,-438.4C638.45,-438.4 695.79,-438.4 732.4,-438.4"/>
<polygon fill="#00695c" stroke="#00695c" points="732.02,-441.9 742.02,-438.4 732.02,-434.9 732.02,-441.9"/>
<text xml:space="preserve" text-anchor="start" x="593.42" y="-466.6" font-family="Helvetica,sans-Serif" font-size="9.00" fill="#00695c"> &#160;stopMotion(), then the worker</text>
<text xml:space="preserve" text-anchor="start" x="593.42" y="-455.35" font-family="Helvetica,sans-Serif" font-size="9.00" fill="#00695c"> &#160;drops the sequence and</text>
<text xml:space="preserve" text-anchor="start" x="593.42" y="-444.1" font-family="Helvetica,sans-Serif" font-size="9.00" fill="#00695c"> &#160;retracts any rod still out</text>
</g>
</g>
</svg>
